<svg xmlns="http://www.w3.org/2000/svg" viewBox="0 0 841.9 595.3">
  <g fill="#61DAFB">
    <path d="M666.3 296.5c0 47.6-64.5 93.6-160.5 114.2 23.1 98.3 5.2 177.3-40.3 177.3-41.8 0-92.4-55.4-137.2-140.3-44.8 84.9-95.4 140.3-137.2 140.3-45.5 0-63.4-79-40.3-177.3C239.6 390.1 175.1 344 175.1 296.5c0-47.6 64.5-93.6 160.5-114.2-23.1-98.3-5.2-177.3 40.3-177.3 41.8 0 92.4 55.4 137.2 140.3 44.8-84.9 95.4-140.3 137.2-140.3 45.5 0 63.4 79 40.3 177.3 96 20.6 160.5 66.6 160.5 114.2zM421 338.2c23 0 41.7-18.7 41.7-41.7s-18.7-41.7-41.7-41.7-41.7 18.7-41.7 41.7 18.7 41.7 41.7 41.7z"/>
  </g>
</svg>
